<svg xmlns="http://www.w3.org/2000/svg" width="256.144" height="322.49" viewBox="0 0 256.144 322.49">
  <g id="ampersand" transform="translate(-46.543)">
    <g id="Group_17" data-name="Group 17" transform="translate(74.285)">
      <path id="Path_26" data-name="Path 26" d="M269.375,52.563C268.74,29.668,233.167,0,180.038,0,137.684,0,102.3,18.951,90.345,52.563Z" transform="translate(-90.345)" fill="#f39b9b"/>
    </g>
    <path id="Path_27" data-name="Path 27" d="M291.557,256.682l-11.716-35.267-28.28-5.579-61.27-63.4c-17.02-17.446-45.527-41.7-45.527-65.951,0-19.147,14.891-28.933,33.187-28.933,32.337,0,35.741,31.06,57.441,31.06,15.317,0,31.486-15.317,31.486-30.635,0-12.752-11.016-27.732-29.983-38.538a157.7,157.7,0,0,0-44.462-6.367c-60.68,0-98.058,34.227-98.162,34.285q-1.733,1.38-3.426,2.81A75.342,75.342,0,0,0,83.494,83.51c0,26.381,11.914,44.251,27.656,61.7l10.733,26.939L148.168,183.5l71.056,72.759,7.853,28.762,30.866,11.233,11.748,11.965A158.391,158.391,0,0,0,310.1,275.713Z" transform="translate(-13.548 -4.794)" fill="#f39b9b"/>
    <g id="Group_18" data-name="Group 18" transform="translate(46.543 140.41)">
      <path id="Path_28" data-name="Path 28" d="M388.853,334.9c16.594-26.38,24.678-55.313,24.678-78.29,0-18.722-4.68-30.21-28.082-30.21-45.527,0-20.424,28.508-36.592,67.653Z" transform="translate(-157.388 -223.42)" fill="#f57171"/>
      <path id="Path_29" data-name="Path 29" d="M244.394,372.744l-38.719-40c-9.786,8.51-23.4,13.616-41.273,13.616-33.187,0-51.058-17.871-51.058-42.975,0-18.3,8.936-32.763,21.275-43.4L97.6,221.7c-27.656,16.594-51.058,49.783-51.058,87.226a86.641,86.641,0,0,0,6.874,33.821,157.515,157.515,0,0,0,106.416,61.033c34.516-.6,62.574-12.778,84.561-31.032Z" transform="translate(-46.543 -221.696)" fill="#f39b9b"/>
    </g>
  </g>
</svg>
