<svg xmlns="http://www.w3.org/2000/svg" width="376.577" height="455.798" viewBox="0 0 376.577 455.798">
  <g id="b" transform="translate(-49.381 -18.705)">
    <g id="Group_1" data-name="Group 1">
      <path id="Path_3" data-name="Path 3" d="M296.928,249.938c69.12-58.16,62.85-125.69,62.85-125.69-1.98-26.33-12.87-47.11-32.37-61.76a99.361,99.361,0,0,0-34.52-16.55,291.617,291.617,0,0,0-49.52-7.36c-29.42-2.04-63.1-1.01-99.74,3.16-21.85,2.48-40.95,5.64-54.97,8.27,2.42,37.83,6.31,112.88,6.31,204.69,0,91.03-4.31,161.4-7.05,197,63.68,16.1,137.17,27.99,199.85,20.52,34.84-4.15,66.34-14.29,90.96-33,46-34.97,47.21-85.27,47.23-88.92,0-95.14-66.81-105.02-129.03-100.36Zm-106.19-143.37s101.67-20.4,91.35,41.94c-11.42,68.95-91.35,55.89-91.35,55.89C193,150.218,190.738,106.568,190.738,106.568Zm4.54,301c2.26-54.19,0-97.83,0-97.83s126.34-26.95,126.34,40.94c0,74.77-126.34,56.89-126.34,56.89Z" fill="#f39b9b"/>
      <path id="Path_4" data-name="Path 4" d="M296.928,249.938c69.12-58.16,62.85-125.69,62.85-125.69-1.98-26.33-12.87-47.11-32.37-61.76a99.361,99.361,0,0,0-34.52-16.55,291.617,291.617,0,0,0-49.52-7.36c46.23,19.53,150.525,81.22,15.078,227.9,0,0,151.2-1.862,134.047,101.739-7.917,47.827-58.246,82-104.726,104,34.84-4.15,66.34-14.29,90.96-33,46-34.97,47.21-85.27,47.23-88.92,0-95.14-66.809-105.02-129.029-100.36Z" fill="#f57171"/>
    </g>
    <g id="Group_2" data-name="Group 2">
      <path id="Path_6" data-name="Path 6" d="M55.1,18.716a7.5,7.5,0,0,0-5.7,7.9C49.423,26.811,56.564,18.36,55.1,18.716Z"/>
    </g>
  </g>
</svg>
