<svg xmlns="http://www.w3.org/2000/svg" width="387.514" height="462.825" viewBox="0 0 387.514 462.825">
  <g id="e" transform="translate(-41.656)">
    <g id="Group_3" data-name="Group 3" transform="translate(41.656)">
      <path id="Path_11" data-name="Path 11" d="M41.657,231.412C41.657,120.609,108.653,0,249.248,0,358.861,0,429.171,49.158,429.171,83.476c0,38.964-65.848,59.36-152.1,59.36-13.66,0-27-.5-39.88-1.443v41q5.506-.161,11.13-.165c83.469,0,116.857,28.319,116.857,48.724v.927c0,20.4-33.388,48.724-116.857,48.724q-5.622,0-11.13-.165v41c12.883-.946,26.22-1.443,39.88-1.443,86.251,0,152.1,20.4,152.1,59.36,0,34.318-70.31,83.476-179.922,83.476-153.168,0-207.807-113.652-207.591-231.412Z" transform="translate(-41.656)" fill="#f39b9b"/>
    </g>
    <g id="Group_5" data-name="Group 5" transform="translate(231.618 0)">
      <path id="Path_12" data-name="Path 12" d="M412.108,83.476c0,36.121-56.594,56.282-133.569,59.032q9.3.315,18.821.328c86.251,0,152.1-20.4,152.1-59.36C449.46,49.158,379.15,0,269.537,0c-5.67,0-11.206.217-16.637.6,97.676,5.685,159.208,50.772,159.208,82.876Z" transform="translate(-251.907)" fill="#f57171"/>
      <g id="Group_4" data-name="Group 4" transform="translate(5.574 182.225)">
        <path id="Path_13" data-name="Path 13" d="M257.967,310.277l.409-.036-.409-.009Z" transform="translate(-257.967 -212.021)" fill="#f57171"/>
        <path id="Path_14" data-name="Path 14" d="M269.14,201.586q-5.414,0-10.719.155c64.014,5.474,90.226,30.491,90.226,48.569v.927c0,18.077-26.211,43.094-90.226,48.569q5.307.151,10.72.155c83.469,0,116.857-28.319,116.857-48.724v-.927C386,229.905,352.609,201.586,269.14,201.586Z" transform="translate(-258.011 -201.586)" fill="#f57171"/>
        <path id="Path_15" data-name="Path 15" d="M257.967,201.763l.409-.009-.409-.036Z" transform="translate(-257.967 -201.599)" fill="#f57171"/>
      </g>
      <path id="Path_16" data-name="Path 16" d="M297.255,353.988q-9.527,0-18.821.328C355.408,357.066,412,377.227,412,413.348c0,32.212-61.95,77.5-160.2,82.932,5.731.346,11.6.542,17.63.542,109.613,0,179.922-49.158,179.922-83.476,0-38.962-65.847-59.359-152.1-59.359Z" transform="translate(-251.801 -33.999)" fill="#f57171"/>
    </g>
    <path id="Path_17" data-name="Path 17" d="M79.659,262.584a7,7,0,0,1-6.98-6.537c-.236-3.543-5.239-87.44,42.149-146.316a7,7,0,1,1,10.912,8.782c-44,54.662-39.139,135.789-39.085,136.6a7,7,0,0,1-6.522,7.454c-.158.01-.315.015-.473.015Z" transform="translate(-2.955 -10.288)" fill="#fff"/>
  </g>
</svg>
